<?xml version="1.0" encoding="iso-8859-1"?>

<!DOCTYPE svg PUBLIC "-//W3C//DTD SVG 1.1//EN" "http://www.w3.org/Graphics/SVG/1.1/DTD/svg11.dtd">
<!-- Uploaded to: SVG Repo, www.svgrepo.com, Generator: SVG Repo Mixer Tools -->
<svg version="1.1" id="_x34_" xmlns="http://www.w3.org/2000/svg" xmlns:xlink="http://www.w3.org/1999/xlink" 
	 viewBox="0 0 512 512"  xml:space="preserve">
<g>
	<g>
		<path style="fill:#3D3D3D;" d="M381.311,126.474v212.251c0,14.281-10.497,26.069-24.176,28.134
			c-1.463,0.343-2.926,0.43-4.388,0.43H222.403l-95.156,73.56l1.893-73.56H28.478c-1.549,0-3.011-0.086-4.474-0.43
			c-12.131-1.807-21.681-11.443-23.574-23.574c-0.344-1.464-0.43-3.012-0.43-4.56V126.474c0-15.744,12.733-28.477,28.478-28.477
			h324.27C368.492,97.996,381.311,110.729,381.311,126.474z"/>
		<path style="fill:#5ABB8F;" d="M512,28.048v269.207c0,15.487-12.562,28.048-28.048,28.048H79.411
			c-15.486,0-27.962-12.561-27.962-28.048V28.048C51.449,12.562,63.925,0,79.411,0h404.541c2.323,0,4.56,0.258,6.711,0.861
			c10.067,2.409,18.068,10.41,20.477,20.476C511.742,23.488,512,25.725,512,28.048z"/>
		<path style="fill:#6EC098;" d="M512,34.5v256.388c0,8.087-2.753,15.573-7.485,21.423c-0.861,1.118-1.807,2.151-2.839,3.183
			c-0.775,0.774-1.635,1.463-2.495,2.151c-0.947,0.86-1.979,1.549-3.098,2.237c-0.688,0.516-1.549,0.946-2.323,1.377
			c2.065-2.668,3.7-5.679,4.904-8.948c1.376-3.699,2.151-7.742,2.151-11.959V43.965c0-19.014-15.487-34.414-34.501-34.414H74.679
			c-5.85,0-11.271,1.376-16.089,3.957C64.871,5.335,74.765,0,85.864,0h391.722c5.936,0,11.528,1.549,16.433,4.216
			c5.85,3.184,10.668,8.002,13.852,13.853C510.451,22.972,512,28.565,512,34.5z"/>
		<polygon style="fill:#5ABB8F;" points="205.116,295.741 355.257,295.741 358.321,414.179 		"/>
		<path style="opacity:0.06;fill:#040000;" d="M504.526,312.304c-6.312,7.935-16.055,13.022-26.962,13.022H356.018l2.298,88.853
			l-114.927-88.853H85.874c-10.908,0-20.651-5.086-26.962-13.022h179.33l113.946,88.087l-2.267-88.087H504.526z"/>
		<g>
			<rect x="143.843" y="63.866" style="fill:#93CEB2;" width="269.624" height="29.107"/>
			<rect x="143.843" y="144.031" style="fill:#93CEB2;" width="297.199" height="29.107"/>
			<rect x="143.843" y="223.693" style="fill:#93CEB2;" width="162.004" height="29.107"/>
		</g>
	</g>
	<path style="opacity:0.06;fill:#040000;" d="M211.787,375.495l10.616-8.207h75.262l60.651,46.89v-0.003l0.005,0.003l-1.224-47.315
		c0.013-0.004,0.026-0.001,0.038-0.004c13.679-2.065,24.176-13.853,24.176-28.134v-13.399h96.252c0.069,0,0.131-0.023,0.2-0.023
		h6.19c15.486,0,28.048-12.561,28.048-28.048v-6.367V75.282L211.787,375.495z"/>
</g>
</svg>